<?xml version="1.0" encoding="UTF-8"?><svg id="Capa_1" xmlns="http://www.w3.org/2000/svg" viewBox="0 0 128 128"><defs><style>.cls-1{fill:#ff6e00;}</style></defs><path class="cls-1" d="m14.92,81.75c8.01,6.34,18.37,9.83,29.16,9.83,0-5.24-3.66-9.69-8.73-10.85-5.34-1.22-10.33-3.53-14.38-6.73-5.11-4.04-8.27-9.08-9.12-14.41-.14-.87.61-1.63,1.47-1.48,4.3.71,12.36,1.54,31.17,1.54,9.4.06,11,3.16,14.04,10.82,0,.02.09.21.22.55-2.66,7.19-7.74,22.13-9.46,35.67,3.22.43,6.47.75,9.75.93.94-7.16,2.95-14.92,4.96-21.49,2.03,6.62,4.06,14.46,4.98,21.66,3.29-.07,6.55-.26,9.79-.58-1.66-13.69-6.84-28.94-9.53-36.19.14-.36.23-.57.24-.59,3.03-7.62,4.63-10.71,14-10.78,19.17,0,27.19-.86,31.43-1.58.75-.13,1.39.53,1.28,1.29-.79,5.42-3.97,10.54-9.15,14.64-4.05,3.2-9.04,5.51-14.38,6.73-5.07,1.16-8.73,5.61-8.73,10.85,10.79,0,21.15-3.49,29.16-9.83,8.44-6.68,13.09-15.58,13.09-25.06v-1.32c0-.53-.06-1.07-.17-1.61-.93-4.29-5.53-6.85-10.47-5.84-2.96.61-9.1,1.87-32.08,1.87-10.8.07-15.99,3.81-19.45,9.4-3.47-5.6-8.66-9.33-19.47-9.4-22.94,0-29.09-1.26-32.05-1.87-4.94-1.01-9.54,1.55-10.47,5.84-.12.54-.17,1.08-.17,1.6v1.32c0,9.48,4.65,18.38,13.09,25.06Z"/><g><path class="cls-1" d="m9.12,38.12c-1.75,0-3.45-.58-4.34-2.06v5.91H1.83v-17.68h2.95v1.86c.97-1.56,2.6-2.09,4.32-2.09,4.72,0,6.92,2.29,6.92,7.04s-2.2,7.02-6.89,7.02Zm-4.34-7.02c0,3.17,1.1,4.63,4.34,4.63,3.07,0,3.97-1.46,3.97-4.63s-.9-4.58-4-4.58-4.32,1.51-4.32,4.58Z"/><path class="cls-1" d="m31.72,37.91h-2.92v-1.68c-.97,1.33-2.47,1.89-4.15,1.89-5.49,0-7.12-3.07-7.12-7.04s1.52-7.04,7.09-7.04,7.09,3.22,7.09,7.04v6.84Zm-11.31-6.84c0,3.27,1.02,4.6,4.24,4.6s4.2-1.33,4.2-4.6-1-4.6-4.22-4.6-4.22,1.33-4.22,4.6Z"/><path class="cls-1" d="m46.28,24.21c-1.77,3.8-3.97,8.78-6.12,13.23-.87,2.04-1.95,4.27-4.27,4.83-1.12.33-2.32.3-3.65.35v-2.36c1.6-.05,2.42.08,3.12-.33.6-.35,1.25-1.48,2-2.89l-5.64-12.82h3.07l4.15,9.45,4.27-9.45h3.07Z"/><path class="cls-1" d="m54.92,38.12c-1.75,0-3.45-.58-4.34-2.06v5.91h-2.95v-17.68h2.95v1.86c.97-1.56,2.6-2.09,4.32-2.09,4.72,0,6.92,2.29,6.92,7.04s-2.2,7.02-6.89,7.02Zm-4.34-7.02c0,3.17,1.1,4.63,4.34,4.63,3.07,0,3.97-1.46,3.97-4.63s-.9-4.58-4-4.58-4.32,1.51-4.32,4.58Z"/><path class="cls-1" d="m75.07,37.91v-7.49c-.05-2.97-1.37-3.85-4.17-3.85-2.52,0-4.12.96-4.12,3.67v7.67h-2.95v-17.7h2.95v5.88c.92-1.51,2.45-1.86,4.12-1.86,5.59,0,7.12,3.09,7.12,6.03v7.64h-2.95Z"/><path class="cls-1" d="m86.78,38.12c-4.72,0-7.12-2.26-7.12-7.04s2.4-7.04,7.12-7.04,7.09,2.26,7.09,7.04-2.4,7.04-7.09,7.04Zm0-11.74c-3.27,0-4.22,1.48-4.22,4.7s.95,4.68,4.22,4.68,4.2-1.48,4.2-4.68-.95-4.7-4.2-4.7Z"/><path class="cls-1" d="m107.08,37.91c0-1.81.02-4.12.02-5.91,0-3.29-.37-5.43-4.17-5.43-3.2,0-4.1,1.68-4.1,4.7v6.64h-2.95v-13.7h2.95v1.89c1.1-1.53,2.57-1.86,4.1-1.86,3.92,0,7.07,1.66,7.07,5.98v7.69h-2.92Z"/><path class="cls-1" d="m122.83,33.77s-.01.02-.02.02c-.22,1.41-1.6,1.96-3.62,1.96-2.8,0-3.97-1.13-4.19-3.47h11.14c.3-5.28-1.42-8.25-6.99-8.25s-7.09,3.27-7.09,7.07,1.5,7.02,7.07,7.02c3.62,0,5.75-1.09,6.71-4.35h-2.99Zm-3.66-7.34c2.87,0,3.97,1.23,4.1,3.62h-8.29c.15-2.41,1.3-3.62,4.19-3.62Z"/></g></svg>